<?xml version="1.0" encoding="utf-8"?>
<!-- Generator: Adobe Illustrator 19.2.0, SVG Export Plug-In . SVG Version: 6.00 Build 0)  -->
<svg version="1.1" id="Layer_1" xmlns:sketch="http://www.bohemiancoding.com/sketch/ns"
	 xmlns="http://www.w3.org/2000/svg" xmlns:xlink="http://www.w3.org/1999/xlink" x="0px" y="0px" viewBox="0 0 49 45"
	 style="enable-background:new 0 0 49 45;" xml:space="preserve">
<style type="text/css">
	.st0{fill:#FFFFFF;}
	.st1{fill:none;stroke:#0096E6;stroke-width:2;stroke-linecap:round;stroke-linejoin:round;}
	.st2{fill:#0096E6;}
</style>
<title></title>
<desc></desc>
<path id="Fill-43" class="st0" d="M45,19L45,19C43.3,9.2,34.8,2,24.5,2S5.7,9.2,4,19c-1.7,0.7-3,2.6-3,4.5c0,2,1.3,3.6,3.1,4.2
	C6.2,37.1,14.5,44,24.5,44c10,0,18.3-6.9,20.4-16.3v0c1.8-0.6,3.1-2.3,3.1-4.2C48,21.6,46.7,19.7,45,19L45,19z"/>
<path id="Stroke-44" class="st1" d="M45,19L45,19C43.3,9.2,34.8,2,24.5,2S5.7,9.2,4,19c-1.7,0.7-3,2.6-3,4.5c0,2,1.3,3.6,3.1,4.2
	C6.2,37.1,14.5,44,24.5,44c10,0,18.3-6.9,20.4-16.3v0c1.8-0.6,3.1-2.3,3.1-4.2C48,21.6,46.7,19.7,45,19L45,19z"/>
<path id="Path" class="st1" d="M32,32c0,3.9-3.1,7-7,7s-7-3.1-7-7"/>
<path id="Fill-75" class="st2" d="M20,25c0,1.1-0.9,2-2,2s-2-0.9-2-2c0-1.1,0.9-2,2-2S20,23.9,20,25"/>
<path id="Fill-76" class="st2" d="M34,25c0,1.1-0.9,2-2,2s-2-0.9-2-2c0-1.1,0.9-2,2-2S34,23.9,34,25"/>
<path id="Stroke-87" class="st1" d="M45,19L45,19C43.3,9.2,34.7,1.7,24.3,1.7C14,1.7,5.7,9.2,4,19c0,0,16.9,4.3,28.2-4.7
	c0.6-0.4,1.4-0.3,1.8,0.3C36,17.6,39.8,21.3,45,19L45,19z"/>
</svg>
