<?xml version="1.0" encoding="utf-8"?>
<!-- Generator: Adobe Illustrator 19.2.0, SVG Export Plug-In . SVG Version: 6.00 Build 0)  -->
<svg version="1.1" id="Layer_1" xmlns:sketch="http://www.bohemiancoding.com/sketch/ns"
	 xmlns="http://www.w3.org/2000/svg" xmlns:xlink="http://www.w3.org/1999/xlink" x="0px" y="0px" viewBox="0 0 49 45"
	 style="enable-background:new 0 0 49 45;" xml:space="preserve">
<style type="text/css">
	.st0{fill:#FFFFFF;}
	.st1{fill:none;stroke:#0096E6;stroke-width:2;stroke-linecap:round;stroke-linejoin:round;}
	.st2{fill:#0096E6;}
</style>
<title></title>
<desc></desc>
<path id="Fill-59" class="st0" d="M45,18.3L45,18.3c-1.7-9.8-10.2-17-20.5-17S5.7,8.5,4,18.3c-1.7,0.7-3,2.6-3,4.5
	c0,2,1.3,3.6,3.1,4.2c2.2,9.3,10.5,16.3,20.4,16.3c10,0,18.3-6.9,20.4-16.3c1.8-0.6,3.1-2.3,3.1-4.2C48,20.9,46.7,19,45,18.3
	L45,18.3z"/>
<path id="Stroke-60" class="st1" d="M45,18.3L45,18.3c-1.7-9.8-10.2-17-20.5-17S5.7,8.5,4,18.3c-1.7,0.7-3,2.6-3,4.5
	c0,2,1.3,3.6,3.1,4.2c2.2,9.3,10.5,16.3,20.4,16.3c10,0,18.3-6.9,20.4-16.3c1.8-0.6,3.1-2.3,3.1-4.2C48,20.9,46.7,19,45,18.3
	L45,18.3z"/>
<path id="Path" class="st1" d="M18,37.3c0-3.9,3.1-7,7-7s7,3.1,7,7"/>
<path id="Fill-92" class="st2" d="M20,24.3c0,1.1-0.9,2-2,2s-2-0.9-2-2c0-1.1,0.9-2,2-2S20,23.2,20,24.3"/>
<path id="Fill-93" class="st2" d="M34,24.3c0,1.1-0.9,2-2,2s-2-0.9-2-2c0-1.1,0.9-2,2-2S34,23.2,34,24.3"/>
<path id="Stroke-95" class="st1" d="M45,18.3L45,18.3C43.3,8.5,34.7,1,24.3,1C14,1,5.7,8.5,4,18.3c0,0,16.9,4.3,28.2-4.7
	c0.6-0.4,1.4-0.3,1.8,0.3C36,16.9,39.8,20.6,45,18.3L45,18.3z"/>
</svg>
