<?xml version="1.0" encoding="utf-8"?>
<!-- Generator: Adobe Illustrator 19.2.0, SVG Export Plug-In . SVG Version: 6.00 Build 0)  -->
<svg version="1.1" id="Layer_1" xmlns="http://www.w3.org/2000/svg" xmlns:xlink="http://www.w3.org/1999/xlink" x="0px" y="0px"
	 viewBox="0 0 100 92.3" style="enable-background:new 0 0 100 92.3;" xml:space="preserve">
<style type="text/css">
	.st0{fill:none;stroke:#D34588;stroke-width:2;stroke-linecap:round;stroke-linejoin:round;}
</style>
<path id="Fill-43" class="st0" d="M91.9,39L91.9,39C88.5,19.1,71.3,4.7,50.4,4.7S12.3,19.1,8.9,39c-3.5,1.4-6.1,5.3-6.1,9.1
	c0,4,2.6,7.3,6.3,8.5c4.2,19,21.1,33,41.3,33s37.1-14,41.3-33l0,0c3.7-1.2,6.3-4.7,6.3-8.6S95.4,40.5,91.9,39L91.9,39z"/>
<path id="Stroke-44" class="st0" d="M91.9,39L91.9,39C88.5,19.1,71.3,4.7,50.4,4.7S12.3,19.1,8.9,39c-3.5,1.4-6.1,5.3-6.1,9.1
	c0,4,2.6,7.3,6.3,8.5c4.2,19,21.1,33,41.3,33s37.1-14,41.3-33l0,0c3.7-1.2,6.3-4.7,6.3-8.6S95.4,40.5,91.9,39L91.9,39z"/>
<path id="Path_1_" class="st0" d="M65.6,65.4c0,7.9-6.3,14.2-14.2,14.2s-14.2-6.3-14.2-14.2"/>
<path id="Fill-75" class="st0" d="M41.3,51.2c0,2.3-1.8,4-4,4s-4-1.8-4-4s1.8-4.1,4-4.1S41.3,48.9,41.3,51.2"/>
<path id="Fill-76" class="st0" d="M69.7,51.2c0,2.3-1.8,4-4.1,4s-4-1.8-4-4s1.8-4.1,4-4.1S69.7,48.9,69.7,51.2"/>
<path id="Stroke-87" class="st0" d="M91.9,39L91.9,39C88.5,19.1,71.1,4,49.9,4C29.1,4,12.3,19.2,8.8,39c0,0,34.2,8.7,57.2-9.5
	c1.2-0.8,2.9-0.6,3.6,0.6C73.7,36.2,81.3,43.7,91.9,39L91.9,39z"/>
</svg>
